<svg xmlns="http://www.w3.org/2000/svg" width="305.102" height="86.289" viewBox="0 0 305.102 86.289">
  <path id="n1" d="M6.844,15V9.367a5.377,5.377,0,0,0-.027-.6,1.371,1.371,0,0,0-.086-.371A.4.4,0,0,0,6.582,8.2a.421.421,0,0,0-.223-.055.491.491,0,0,0-.289.094,1.313,1.313,0,0,0-.285.3,4.818,4.818,0,0,0-.336.559q-.184.348-.434.855V15H3.773V9.516q0-.43-.027-.7a1.623,1.623,0,0,0-.086-.414.389.389,0,0,0-.152-.2.442.442,0,0,0-.227-.055.493.493,0,0,0-.266.078,1.13,1.13,0,0,0-.277.281,4.4,4.4,0,0,0-.34.555q-.187.352-.445.9V15H.7V7.156H1.742L1.8,8.648A7.134,7.134,0,0,1,2.2,7.891a2.441,2.441,0,0,1,.395-.5,1.346,1.346,0,0,1,.434-.281,1.4,1.4,0,0,1,.512-.09A1.153,1.153,0,0,1,4.5,7.43a2.051,2.051,0,0,1,.328,1.281q.188-.406.367-.723a2.64,2.64,0,0,1,.387-.531,1.484,1.484,0,0,1,.457-.328,1.388,1.388,0,0,1,.578-.113q1.477,0,1.477,2.273V15Zm10.18-7.844-2.672,7.016a13.757,13.757,0,0,1-.855,1.844,5.467,5.467,0,0,1-.965,1.27,3.4,3.4,0,0,1-1.148.73,3.958,3.958,0,0,1-1.4.234q-.2,0-.367-.008t-.359-.023V16.984q.172.023.375.043t.43.02a2.174,2.174,0,0,0,.7-.109,1.864,1.864,0,0,0,.613-.355,3.171,3.171,0,0,0,.555-.637A6.269,6.269,0,0,0,12.445,15L9.313,7.156h1.547l1.984,5.188.4,1.219.453-1.25,1.836-5.156Zm8.031,5.7a1.867,1.867,0,0,1-.141.742,1.947,1.947,0,0,1-.383.582,2.382,2.382,0,0,1-.562.434,3.739,3.739,0,0,1-.684.3,4.5,4.5,0,0,1-.746.172,5.3,5.3,0,0,1-.75.055,14.057,14.057,0,0,1-1.465-.07,9.882,9.882,0,0,1-1.309-.227v-1.25a10.889,10.889,0,0,0,1.367.3,9.134,9.134,0,0,0,1.352.1,3.032,3.032,0,0,0,1.445-.266.831.831,0,0,0,.469-.758.928.928,0,0,0-.074-.379.861.861,0,0,0-.27-.32,2.576,2.576,0,0,0-.605-.316q-.41-.164-1.121-.375a7.958,7.958,0,0,1-.98-.355,3.288,3.288,0,0,1-.777-.473,2.03,2.03,0,0,1-.516-.641,1.884,1.884,0,0,1-.187-.867,1.993,1.993,0,0,1,.152-.719,1.953,1.953,0,0,1,.52-.727,2.891,2.891,0,0,1,.992-.559,4.706,4.706,0,0,1,1.563-.223q.461,0,1.023.051a10.569,10.569,0,0,1,1.172.176V8.453a11.2,11.2,0,0,0-1.215-.23,7.915,7.915,0,0,0-1-.074,3.975,3.975,0,0,0-.855.078,1.775,1.775,0,0,0-.562.215.839.839,0,0,0-.309.32.855.855,0,0,0-.094.395.877.877,0,0,0,.082.383.916.916,0,0,0,.3.332,3,3,0,0,0,.621.32q.4.16,1.039.348a8.311,8.311,0,0,1,1.172.426,3.025,3.025,0,0,1,.773.5,1.6,1.6,0,0,1,.426.617A2.214,2.214,0,0,1,25.055,12.859Zm2.188-1.617a5.653,5.653,0,0,1,.223-1.6,3.789,3.789,0,0,1,.688-1.332,3.27,3.27,0,0,1,1.191-.91,4.1,4.1,0,0,1,1.734-.336,4.986,4.986,0,0,1,.789.063,6.275,6.275,0,0,1,.828.2l1.2-.3V18.2H32.531V15.242l.07-1.68a3.194,3.194,0,0,1-2.641,1.578,2.429,2.429,0,0,1-1.2-.281,2.4,2.4,0,0,1-.848-.8,3.793,3.793,0,0,1-.508-1.234A6.973,6.973,0,0,1,27.242,11.242Zm1.391-.086a6.466,6.466,0,0,0,.1,1.18,2.977,2.977,0,0,0,.3.887,1.518,1.518,0,0,0,.5.559,1.269,1.269,0,0,0,.707.2,1.777,1.777,0,0,0,1.09-.461,6.594,6.594,0,0,0,1.207-1.367V8.508a3.57,3.57,0,0,0-.707-.242,3.624,3.624,0,0,0-.84-.094,2.1,2.1,0,0,0-1.75.758A3.524,3.524,0,0,0,28.633,11.156ZM39.109,5.078h-2.32V3.961h3.7v9.906H42.82V15H36.531V13.867h2.578Zm6.508,2.148.844-.867,5.25,4.383-5.25,4.383-.844-.859,4.258-3.508Zm23.734,7.391a6.654,6.654,0,0,1-2.57.508,4.235,4.235,0,0,1-3.324-1.293,5.56,5.56,0,0,1-1.16-3.824,7.2,7.2,0,0,1,.32-2.219,4.823,4.823,0,0,1,.914-1.684,4.024,4.024,0,0,1,1.438-1.066,4.606,4.606,0,0,1,1.891-.375,6.777,6.777,0,0,1,1.32.121,5.53,5.53,0,0,1,1.172.371V6.523A5.182,5.182,0,0,0,68.2,6.059a4.969,4.969,0,0,0-1.3-.16,3.059,3.059,0,0,0-1.3.27,2.691,2.691,0,0,0-.988.781,3.657,3.657,0,0,0-.625,1.25,5.931,5.931,0,0,0-.219,1.684,4.724,4.724,0,0,0,.8,2.992,2.839,2.839,0,0,0,2.359,1.008A5.1,5.1,0,0,0,68.2,13.73a5.863,5.863,0,0,0,1.156-.426ZM78.586,15h-1.57l-1.523-3.266a3.611,3.611,0,0,0-.352-.621,1.67,1.67,0,0,0-.387-.391,1.377,1.377,0,0,0-.453-.207,2.24,2.24,0,0,0-.551-.062h-.656V15H71.7V4.789h2.734a5.287,5.287,0,0,1,1.531.2,2.886,2.886,0,0,1,1.051.547,2.094,2.094,0,0,1,.6.848,3.026,3.026,0,0,1,.191,1.1,2.859,2.859,0,0,1-.141.9,2.474,2.474,0,0,1-.418.773,2.659,2.659,0,0,1-.687.6,3.142,3.142,0,0,1-.941.379,1.6,1.6,0,0,1,.73.52,5.613,5.613,0,0,1,.613.988ZM76.359,7.594a1.471,1.471,0,0,0-.512-1.227,2.266,2.266,0,0,0-1.441-.406H73.094V9.336h1.125a3.212,3.212,0,0,0,.887-.113,1.894,1.894,0,0,0,.672-.336,1.522,1.522,0,0,0,.43-.547A1.736,1.736,0,0,0,76.359,7.594ZM86.547,15h-5.8V4.789h5.8V5.961H82.133V9.125h4.242V10.3H82.133v3.516h4.414Zm10.141,0H95.172l-.711-2.227h-4.25L89.492,15H88.047L91.438,4.789h1.906Zm-2.625-3.469L92.336,6.07l-1.727,5.461Zm10.828-5.555h-3.023V15h-1.406V5.977H97.438V4.789h7.453ZM112.938,15h-5.8V4.789h5.8V5.961h-4.414V9.125h4.242V10.3h-4.242v3.516h4.414Zm18.445-5.219a8.451,8.451,0,0,1-.113,1.406,5.4,5.4,0,0,1-.363,1.25,4.218,4.218,0,0,1-.648,1.051,3.681,3.681,0,0,1-.977.809,4.966,4.966,0,0,1-1.344.52A7.5,7.5,0,0,1,126.2,15h-2.187V4.789h2.633a4.718,4.718,0,0,1,3.566,1.23A5.27,5.27,0,0,1,131.383,9.781Zm-1.461.1a7.122,7.122,0,0,0-.2-1.836,2.924,2.924,0,0,0-.617-1.211,2.369,2.369,0,0,0-1.039-.668,4.681,4.681,0,0,0-1.469-.207h-1.2V13.8h1.039Q129.922,13.8,129.922,9.883ZM140.672,15h-1.516l-.711-2.227H134.2L133.477,15h-1.445l3.391-10.211h1.906Zm-2.625-3.469L136.32,6.07l-1.727,5.461Zm10.828-5.555h-3.023V15h-1.406V5.977h-3.023V4.789h7.453ZM158.266,15H156.75l-.711-2.227h-4.25L151.07,15h-1.445l3.391-10.211h1.906Zm-2.625-3.469L153.914,6.07l-1.727,5.461Zm10.641.414a2.854,2.854,0,0,1-.285,1.3,2.678,2.678,0,0,1-.812.957,3.788,3.788,0,0,1-1.273.594,6.316,6.316,0,0,1-1.66.2h-2.672V4.789H162.5q3.414,0,3.414,2.484A2.51,2.51,0,0,1,165.52,8.7a2.339,2.339,0,0,1-1.285.883,2.941,2.941,0,0,1,.785.266,2.353,2.353,0,0,1,.652.484,2.218,2.218,0,0,1,.445.7A2.422,2.422,0,0,1,166.281,11.945Zm-1.812-4.484a1.83,1.83,0,0,0-.094-.59,1.065,1.065,0,0,0-.328-.477,1.714,1.714,0,0,0-.633-.316,3.64,3.64,0,0,0-1.008-.117h-1.437v3.2h1.391a3.4,3.4,0,0,0,.863-.1,1.866,1.866,0,0,0,.664-.312,1.435,1.435,0,0,0,.43-.527A1.723,1.723,0,0,0,164.469,7.461Zm.336,4.531a1.489,1.489,0,0,0-.164-.7,1.46,1.46,0,0,0-.477-.527,2.406,2.406,0,0,0-.762-.332,4.014,4.014,0,0,0-1.012-.117h-1.422v3.516h1.469a2.932,2.932,0,0,0,1.781-.445A1.635,1.635,0,0,0,164.8,11.992ZM175.859,15h-1.516l-.711-2.227h-4.25L168.664,15h-1.445l3.391-10.211h1.906Zm-2.625-3.469L171.508,6.07l-1.727,5.461Zm10.492.7a2.628,2.628,0,0,1-.3,1.273,2.587,2.587,0,0,1-.828.91,3.831,3.831,0,0,1-1.277.543,7.025,7.025,0,0,1-1.645.18q-.406,0-.809-.031t-.773-.078q-.371-.047-.7-.109t-.594-.133V13.445a7.277,7.277,0,0,0,1.316.344,9.913,9.913,0,0,0,1.66.125,5.336,5.336,0,0,0,1.145-.105,2.2,2.2,0,0,0,.773-.312,1.24,1.24,0,0,0,.438-.5,1.608,1.608,0,0,0,.137-.68,1.109,1.109,0,0,0-.23-.707,2.272,2.272,0,0,0-.605-.523,5.57,5.57,0,0,0-.855-.422q-.48-.191-.98-.395t-.98-.441a4.054,4.054,0,0,1-.855-.562,2.6,2.6,0,0,1-.605-.762,2.2,2.2,0,0,1-.23-1.039,2.585,2.585,0,0,1,.219-1.031,2.47,2.47,0,0,1,.68-.9,3.519,3.519,0,0,1,1.184-.637,5.443,5.443,0,0,1,1.723-.242q.258,0,.559.023t.609.066q.309.043.609.1t.559.117V6.2a9.466,9.466,0,0,0-1.2-.262,7.881,7.881,0,0,0-1.164-.09,3.076,3.076,0,0,0-1.758.4,1.247,1.247,0,0,0-.562,1.07,1.125,1.125,0,0,0,.23.711,2.293,2.293,0,0,0,.605.531,5.345,5.345,0,0,0,.855.426q.48.191.98.395t.98.445a4,4,0,0,1,.855.574,2.666,2.666,0,0,1,.605.777A2.267,2.267,0,0,1,183.727,12.234ZM192.109,15h-5.8V4.789h5.8V5.961H187.7V9.125h4.242V10.3H187.7v3.516h4.414Zm18.172-4.062a5.2,5.2,0,0,1-.293,1.828,3.581,3.581,0,0,1-.809,1.3,3.314,3.314,0,0,1-1.219.773,4.392,4.392,0,0,1-1.523.258,7.122,7.122,0,0,1-.746-.039,5.659,5.659,0,0,1-.754-.133V18.2h-1.359V7.156h1.211l.086,1.313a3.5,3.5,0,0,1,1.25-1.129,3.232,3.232,0,0,1,1.438-.324,2.4,2.4,0,0,1,1.18.281,2.448,2.448,0,0,1,.852.793,3.751,3.751,0,0,1,.516,1.234A6.984,6.984,0,0,1,210.281,10.938ZM208.891,11a6.617,6.617,0,0,0-.09-1.133,2.956,2.956,0,0,0-.285-.883,1.566,1.566,0,0,0-.5-.574,1.262,1.262,0,0,0-.727-.207,1.768,1.768,0,0,0-.523.082,2.123,2.123,0,0,0-.551.273,4.1,4.1,0,0,0-.6.508,8,8,0,0,0-.676.785v3.8a4.562,4.562,0,0,0,.789.246,3.825,3.825,0,0,0,.813.09,2.131,2.131,0,0,0,1.727-.746A3.434,3.434,0,0,0,208.891,11Zm3.8-3.844h1.242l.039,1.445a5.035,5.035,0,0,1,1.371-1.211,2.784,2.784,0,0,1,1.363-.375,2.222,2.222,0,0,1,1.848.789,3.528,3.528,0,0,1,.582,2.344h-1.375a2.567,2.567,0,0,0-.3-1.5,1.084,1.084,0,0,0-.949-.465,1.65,1.65,0,0,0-.551.1,2.225,2.225,0,0,0-.57.313,5.109,5.109,0,0,0-.621.551,10.169,10.169,0,0,0-.7.813V15H212.7ZM227.477,15h-1.219l-.047-1.266a6.331,6.331,0,0,1-.668.676,3.453,3.453,0,0,1-.629.434,2.421,2.421,0,0,1-.629.23,3.246,3.246,0,0,1-.668.066,2.29,2.29,0,0,1-1.828-.711,3.205,3.205,0,0,1-.617-2.148V7.156h1.359v5.016q0,1.8,1.359,1.8a1.633,1.633,0,0,0,.488-.074,1.834,1.834,0,0,0,.5-.258,3.956,3.956,0,0,0,.563-.5q.3-.312.676-.789v-5.2h1.359Zm9.117-4.336q0,.289-.008.484t-.023.367h-5.508a2.441,2.441,0,0,0,.672,1.848,2.69,2.69,0,0,0,1.938.645q.344,0,.688-.027t.664-.074q.32-.047.613-.105t.543-.129v1.117a9.49,9.49,0,0,1-1.254.254,10.47,10.47,0,0,1-1.449.1,4.928,4.928,0,0,1-1.734-.273,2.968,2.968,0,0,1-1.191-.793,3.265,3.265,0,0,1-.687-1.273,6.026,6.026,0,0,1-.223-1.707,5.069,5.069,0,0,1,.238-1.566,3.932,3.932,0,0,1,.7-1.3A3.3,3.3,0,0,1,233.2,7.016a3.827,3.827,0,0,1,1.453.258,2.918,2.918,0,0,1,1.066.73,3.114,3.114,0,0,1,.656,1.148A4.814,4.814,0,0,1,236.594,10.664Zm-1.414-.2a2.964,2.964,0,0,0-.1-.957,2.014,2.014,0,0,0-.387-.746,1.8,1.8,0,0,0-.652-.488,2.189,2.189,0,0,0-.906-.176,1.893,1.893,0,0,0-.812.172,1.853,1.853,0,0,0-.633.484,2.5,2.5,0,0,0-.43.75,3.458,3.458,0,0,0-.2.961Zm10.289.469a5.264,5.264,0,0,1-.27,1.746,3.68,3.68,0,0,1-.766,1.3,3.292,3.292,0,0,1-1.207.82,4.27,4.27,0,0,1-1.6.285,7.9,7.9,0,0,1-1.422-.133,7.29,7.29,0,0,1-1.437-.422V3.961h1.359V7l-.062,1.453a3.528,3.528,0,0,1,1.254-1.113,3.24,3.24,0,0,1,1.434-.324,2.4,2.4,0,0,1,1.18.281,2.448,2.448,0,0,1,.852.793,3.751,3.751,0,0,1,.516,1.234A6.984,6.984,0,0,1,245.469,10.938ZM244.078,11a6.617,6.617,0,0,0-.09-1.133,2.956,2.956,0,0,0-.285-.883,1.566,1.566,0,0,0-.5-.574,1.262,1.262,0,0,0-.727-.207,1.768,1.768,0,0,0-.523.082,2.123,2.123,0,0,0-.551.273,4.1,4.1,0,0,0-.6.508,8,8,0,0,0-.676.785v3.8a5.3,5.3,0,0,0,.813.246,3.724,3.724,0,0,0,.789.09,2.7,2.7,0,0,0,.895-.148,1.847,1.847,0,0,0,.75-.5,2.482,2.482,0,0,0,.516-.922A4.561,4.561,0,0,0,244.078,11Zm8.523,4-.031-1.055a4.251,4.251,0,0,1-1.3.914,3.5,3.5,0,0,1-1.387.281,3.4,3.4,0,0,1-1.148-.172,2.152,2.152,0,0,1-.785-.473,1.832,1.832,0,0,1-.453-.707,2.616,2.616,0,0,1-.145-.883,2.191,2.191,0,0,1,.879-1.848,4.251,4.251,0,0,1,2.6-.668h1.625V9.7a1.455,1.455,0,0,0-.445-1.113,1.927,1.927,0,0,0-1.359-.418,5.812,5.812,0,0,0-1.309.148,9.2,9.2,0,0,0-1.332.422V7.516q.258-.094.574-.184t.668-.16q.352-.07.734-.113a6.929,6.929,0,0,1,.773-.043,4.851,4.851,0,0,1,1.281.156,2.6,2.6,0,0,1,.965.477,2.1,2.1,0,0,1,.605.8,2.84,2.84,0,0,1,.211,1.141V15Zm-.148-3.57h-1.727a3.311,3.311,0,0,0-.875.1,1.661,1.661,0,0,0-.6.289,1.16,1.16,0,0,0-.348.449,1.471,1.471,0,0,0-.113.59,1.339,1.339,0,0,0,.07.434.964.964,0,0,0,.227.367,1.094,1.094,0,0,0,.406.254,1.743,1.743,0,0,0,.609.094,2.576,2.576,0,0,0,1.074-.285,5.249,5.249,0,0,0,1.277-.9Zm4.609,5.172a2.933,2.933,0,0,0,.773-.07,2.309,2.309,0,0,0,.66-.254,1.417,1.417,0,0,0,.457-.418.983.983,0,0,0,.172-.57,1.086,1.086,0,0,0-.113-.531,2.559,2.559,0,0,0-.254-.375,2.787,2.787,0,0,1-.254-.367,1.134,1.134,0,0,1-.051-.867,1,1,0,0,1,.191-.328.98.98,0,0,1,.328-.242,1.1,1.1,0,0,1,.473-.094,1.281,1.281,0,0,1,.527.113,1.208,1.208,0,0,1,.445.348,1.779,1.779,0,0,1,.3.586,2.709,2.709,0,0,1,.113.828,3.335,3.335,0,0,1-.238,1.246,3.036,3.036,0,0,1-.711,1.059,3.442,3.442,0,0,1-1.18.734,4.544,4.544,0,0,1-1.645.273Zm2.445-9.586a1.118,1.118,0,0,1,.461.1,1.256,1.256,0,0,1,.645.645,1.146,1.146,0,0,1,0,.926,1.28,1.28,0,0,1-.262.379,1.209,1.209,0,0,1-.383.258,1.19,1.19,0,0,1-.926,0,1.226,1.226,0,0,1-.637-.637,1.19,1.19,0,0,1,0-.926,1.21,1.21,0,0,1,.258-.383,1.28,1.28,0,0,1,.379-.262A1.11,1.11,0,0,1,259.508,7.016ZM3.648,39.094a3.4,3.4,0,0,1-1.414-.516,3.305,3.305,0,0,1-1-1.051,4.993,4.993,0,0,1-.594-1.539,9.149,9.149,0,0,1-.2-1.965,8.038,8.038,0,0,1,.32-2.406,4.872,4.872,0,0,1,.871-1.676,3.432,3.432,0,0,1,1.285-.977,3.887,3.887,0,0,1,1.555-.316A3.878,3.878,0,0,1,6.191,29a3.223,3.223,0,0,1,1.215,1.023,4.655,4.655,0,0,1,.723,1.617,8.792,8.792,0,0,1,.238,2.137A8.106,8.106,0,0,1,8.1,35.973a5.23,5.23,0,0,1-.727,1.6A3.576,3.576,0,0,1,6.289,38.6a3.767,3.767,0,0,1-1.344.492A1.95,1.95,0,0,0,5.492,40.2a1.665,1.665,0,0,0,1.211.418,2.255,2.255,0,0,0,.738-.125,2.531,2.531,0,0,0,.738-.422l.617.961a3.32,3.32,0,0,1-1.062.6,3.581,3.581,0,0,1-1.125.18,3.664,3.664,0,0,1-1.148-.172,2.58,2.58,0,0,1-.91-.512,2.5,2.5,0,0,1-.621-.852A3.392,3.392,0,0,1,3.648,39.094Zm3.273-5.148a9.2,9.2,0,0,0-.137-1.652,4.053,4.053,0,0,0-.441-1.281,2.281,2.281,0,0,0-.785-.832,2.165,2.165,0,0,0-1.16-.3A2,2,0,0,0,3.27,30.2a2.444,2.444,0,0,0-.777.848,4.265,4.265,0,0,0-.453,1.25,7.464,7.464,0,0,0-.148,1.52A9.219,9.219,0,0,0,2.031,35.5a4.238,4.238,0,0,0,.441,1.293,2.222,2.222,0,0,0,.777.832,2.151,2.151,0,0,0,1.148.293A2.019,2.019,0,0,0,5.531,37.6a2.455,2.455,0,0,0,.785-.852,4.244,4.244,0,0,0,.457-1.262A7.661,7.661,0,0,0,6.922,33.945ZM16.352,39H15.133l-.047-1.266a6.331,6.331,0,0,1-.668.676,3.453,3.453,0,0,1-.629.434,2.421,2.421,0,0,1-.629.23,3.246,3.246,0,0,1-.668.066,2.29,2.29,0,0,1-1.828-.711,3.205,3.205,0,0,1-.617-2.148V31.156h1.359v5.016q0,1.8,1.359,1.8a1.633,1.633,0,0,0,.488-.074,1.834,1.834,0,0,0,.5-.258,3.956,3.956,0,0,0,.563-.5q.3-.312.676-.789v-5.2h1.359Zm9.117-4.336q0,.289-.008.484t-.023.367H19.93a2.441,2.441,0,0,0,.672,1.848,2.69,2.69,0,0,0,1.938.645q.344,0,.688-.027t.664-.074q.32-.047.613-.105t.543-.129v1.117a9.49,9.49,0,0,1-1.254.254,10.47,10.47,0,0,1-1.449.1,4.928,4.928,0,0,1-1.734-.273,2.969,2.969,0,0,1-1.191-.793A3.265,3.265,0,0,1,18.73,36.8a6.026,6.026,0,0,1-.223-1.707,5.069,5.069,0,0,1,.238-1.566,3.932,3.932,0,0,1,.7-1.3,3.3,3.3,0,0,1,2.629-1.215,3.827,3.827,0,0,1,1.453.258A2.918,2.918,0,0,1,24.59,32a3.114,3.114,0,0,1,.656,1.148A4.814,4.814,0,0,1,25.469,34.664Zm-1.414-.2a2.963,2.963,0,0,0-.1-.957,2.015,2.015,0,0,0-.387-.746,1.8,1.8,0,0,0-.652-.488,2.189,2.189,0,0,0-.906-.176,1.893,1.893,0,0,0-.812.172,1.853,1.853,0,0,0-.633.484,2.5,2.5,0,0,0-.43.75,3.458,3.458,0,0,0-.2.961Zm3.906-3.312H29.2l.039,1.445a5.035,5.035,0,0,1,1.371-1.211,2.784,2.784,0,0,1,1.363-.375,2.222,2.222,0,0,1,1.848.789,3.528,3.528,0,0,1,.582,2.344H33.031a2.567,2.567,0,0,0-.3-1.5,1.084,1.084,0,0,0-.949-.465,1.65,1.65,0,0,0-.551.1,2.225,2.225,0,0,0-.57.313,5.109,5.109,0,0,0-.621.551,10.169,10.169,0,0,0-.7.813V39H27.961Zm15.453,0-2.672,7.016a13.757,13.757,0,0,1-.855,1.844,5.467,5.467,0,0,1-.965,1.27,3.4,3.4,0,0,1-1.148.73,3.958,3.958,0,0,1-1.4.234q-.2,0-.367-.008t-.359-.023V40.984q.172.023.375.043t.43.02a2.174,2.174,0,0,0,.7-.109,1.864,1.864,0,0,0,.613-.355,3.171,3.171,0,0,0,.555-.637A6.269,6.269,0,0,0,38.836,39L35.7,31.156H37.25l1.984,5.188.4,1.219.453-1.25,1.836-5.156Zm17.734,2.672a7.734,7.734,0,0,1-.324,2.375,4.848,4.848,0,0,1-.875,1.652,3.457,3.457,0,0,1-1.289.969,4.157,4.157,0,0,1-3.273-.039,3.179,3.179,0,0,1-1.211-1.027,4.685,4.685,0,0,1-.715-1.637,9.241,9.241,0,0,1-.234-2.176,7.763,7.763,0,0,1,.32-2.359,4.8,4.8,0,0,1,.871-1.652,3.465,3.465,0,0,1,1.285-.969,3.887,3.887,0,0,1,1.555-.316,3.842,3.842,0,0,1,1.715.359,3.257,3.257,0,0,1,1.215,1.027,4.652,4.652,0,0,1,.723,1.629A9.01,9.01,0,0,1,61.148,33.828Zm-1.445.1a9.148,9.148,0,0,0-.137-1.645A4.1,4.1,0,0,0,59.125,31a2.273,2.273,0,0,0-.785-.836,2.165,2.165,0,0,0-1.16-.3,1.982,1.982,0,0,0-1.129.316,2.461,2.461,0,0,0-.777.859,4.366,4.366,0,0,0-.453,1.273,7.778,7.778,0,0,0-.148,1.551,8.948,8.948,0,0,0,.141,1.652,4.187,4.187,0,0,0,.441,1.281,2.262,2.262,0,0,0,.777.832,2.129,2.129,0,0,0,1.148.3,2,2,0,0,0,1.133-.316,2.481,2.481,0,0,0,.785-.859,4.3,4.3,0,0,0,.457-1.27A7.761,7.761,0,0,0,59.7,33.93ZM69.758,39h-1.75l-3.82-5.008V39H62.8V28.789h1.391v4.742l3.742-4.742h1.648l-4.031,4.852Zm2.477,1.6a2.933,2.933,0,0,0,.773-.07,2.309,2.309,0,0,0,.66-.254,1.417,1.417,0,0,0,.457-.418.983.983,0,0,0,.172-.57,1.086,1.086,0,0,0-.113-.531,2.558,2.558,0,0,0-.254-.375,2.787,2.787,0,0,1-.254-.367,1.134,1.134,0,0,1-.051-.867,1,1,0,0,1,.191-.328.98.98,0,0,1,.328-.242,1.1,1.1,0,0,1,.473-.094,1.281,1.281,0,0,1,.527.113,1.208,1.208,0,0,1,.445.348,1.778,1.778,0,0,1,.3.586,2.709,2.709,0,0,1,.113.828,3.334,3.334,0,0,1-.238,1.246,3.036,3.036,0,0,1-.711,1.059,3.442,3.442,0,0,1-1.18.734,4.544,4.544,0,0,1-1.645.273ZM95.758,39H89.344V37.734h2.625V30.281l-2.445,1.328-.5-1.156,3.25-1.711h1.2v8.992h2.281Zm11.375-7.844h1.242l.039,1.445a5.035,5.035,0,0,1,1.371-1.211,2.784,2.784,0,0,1,1.363-.375A2.222,2.222,0,0,1,113,31.8a3.528,3.528,0,0,1,.582,2.344H112.2a2.567,2.567,0,0,0-.3-1.5,1.084,1.084,0,0,0-.949-.465,1.65,1.65,0,0,0-.551.1,2.225,2.225,0,0,0-.57.313,5.109,5.109,0,0,0-.621.551,10.169,10.169,0,0,0-.7.813V39h-1.375Zm15.3,3.859a5.2,5.2,0,0,1-.258,1.676,3.728,3.728,0,0,1-.742,1.3,3.329,3.329,0,0,1-1.18.844,3.939,3.939,0,0,1-1.578.3,4.117,4.117,0,0,1-1.512-.262,2.991,2.991,0,0,1-1.133-.77,3.406,3.406,0,0,1-.711-1.258,5.536,5.536,0,0,1-.246-1.727,5.129,5.129,0,0,1,.258-1.668,3.739,3.739,0,0,1,.742-1.3,3.33,3.33,0,0,1,1.18-.844,3.939,3.939,0,0,1,1.578-.3,4.117,4.117,0,0,1,1.512.262,3.012,3.012,0,0,1,1.133.766,3.368,3.368,0,0,1,.711,1.254A5.508,5.508,0,0,1,122.438,35.016Zm-1.391.063a4.506,4.506,0,0,0-.16-1.27,2.557,2.557,0,0,0-.457-.906,1.885,1.885,0,0,0-.723-.547,2.374,2.374,0,0,0-.949-.184,2.136,2.136,0,0,0-1.043.238,2.065,2.065,0,0,0-.711.637,2.744,2.744,0,0,0-.406.926,4.64,4.64,0,0,0-.129,1.105,4.548,4.548,0,0,0,.16,1.273,2.555,2.555,0,0,0,.457.91,1.892,1.892,0,0,0,.719.547,2.366,2.366,0,0,0,.953.184,2.136,2.136,0,0,0,1.043-.238,2.065,2.065,0,0,0,.711-.637,2.744,2.744,0,0,0,.406-.926A4.674,4.674,0,0,0,121.047,35.078Zm10.625-3.922L130.531,39h-1.648l-1.133-3.281-.227-.8-.258.844L126.18,39h-1.6l-1.133-7.844h1.328l.656,5.328.141,1.188.336-1.039,1.141-3.523h.977l1.227,3.477.352,1.039.117-1.1.609-5.367ZM147.039,39l-.031-1.055a4.251,4.251,0,0,1-1.3.914,3.5,3.5,0,0,1-1.387.281,3.4,3.4,0,0,1-1.148-.172,2.152,2.152,0,0,1-.785-.473,1.832,1.832,0,0,1-.453-.707,2.616,2.616,0,0,1-.145-.883,2.191,2.191,0,0,1,.879-1.848,4.251,4.251,0,0,1,2.6-.668h1.625V33.7a1.455,1.455,0,0,0-.445-1.113,1.927,1.927,0,0,0-1.359-.418,5.812,5.812,0,0,0-1.309.148,9.2,9.2,0,0,0-1.332.422V31.516q.258-.094.574-.184t.668-.16q.352-.07.734-.113a6.928,6.928,0,0,1,.773-.043,4.851,4.851,0,0,1,1.281.156,2.6,2.6,0,0,1,.965.477,2.1,2.1,0,0,1,.605.8,2.84,2.84,0,0,1,.211,1.141V39Zm-.148-3.57h-1.727a3.311,3.311,0,0,0-.875.1,1.661,1.661,0,0,0-.6.289,1.16,1.16,0,0,0-.348.449,1.471,1.471,0,0,0-.113.59,1.339,1.339,0,0,0,.07.434.964.964,0,0,0,.227.367,1.094,1.094,0,0,0,.406.254,1.743,1.743,0,0,0,.609.094,2.576,2.576,0,0,0,1.074-.285,5.249,5.249,0,0,0,1.277-.9Zm10.867-6.2A9.1,9.1,0,0,0,155.914,29q-1.836,0-1.836,1.922V32.3h3.438V33.43h-3.437V39H152.7V33.43h-2.523V32.3H152.7V31q0-3.133,3.266-3.133a9.671,9.671,0,0,1,1.8.188Zm8.8,0A9.1,9.1,0,0,0,164.711,29q-1.836,0-1.836,1.922V32.3h3.438V33.43h-3.437V39h-1.383V33.43h-2.523V32.3h2.523V31q0-3.133,3.266-3.133a9.671,9.671,0,0,1,1.8.188Zm8.461,5.438q0,.289-.008.484t-.023.367h-5.508a2.441,2.441,0,0,0,.672,1.848,2.69,2.69,0,0,0,1.938.645q.344,0,.688-.027t.664-.074q.32-.047.613-.105t.543-.129v1.117a9.49,9.49,0,0,1-1.254.254,10.47,10.47,0,0,1-1.449.1,4.928,4.928,0,0,1-1.734-.273,2.968,2.968,0,0,1-1.191-.793,3.265,3.265,0,0,1-.687-1.273,6.026,6.026,0,0,1-.223-1.707,5.069,5.069,0,0,1,.238-1.566,3.932,3.932,0,0,1,.7-1.3,3.3,3.3,0,0,1,2.629-1.215,3.827,3.827,0,0,1,1.453.258,2.918,2.918,0,0,1,1.066.73,3.114,3.114,0,0,1,.656,1.148A4.814,4.814,0,0,1,175.016,34.664Zm-1.414-.2a2.964,2.964,0,0,0-.1-.957,2.014,2.014,0,0,0-.387-.746,1.8,1.8,0,0,0-.652-.488,2.189,2.189,0,0,0-.906-.176,1.893,1.893,0,0,0-.812.172,1.853,1.853,0,0,0-.633.484,2.5,2.5,0,0,0-.43.75,3.458,3.458,0,0,0-.2.961Zm9.68,4.242a5.88,5.88,0,0,1-1.09.3,6.68,6.68,0,0,1-1.152.1,3.865,3.865,0,0,1-2.863-1.008,4,4,0,0,1-1-2.945,4.7,4.7,0,0,1,.289-1.687,3.758,3.758,0,0,1,.813-1.3,3.591,3.591,0,0,1,1.25-.832,4.245,4.245,0,0,1,1.6-.293,7.149,7.149,0,0,1,1.141.086,4.724,4.724,0,0,1,1.016.281v1.3a4.31,4.31,0,0,0-1.035-.387,4.854,4.854,0,0,0-1.09-.121,2.482,2.482,0,0,0-.988.2,2.41,2.41,0,0,0-.816.574,2.72,2.72,0,0,0-.555.914,3.437,3.437,0,0,0-.2,1.219,2.933,2.933,0,0,0,.691,2.129,2.559,2.559,0,0,0,1.918.707,4.576,4.576,0,0,0,1.074-.125,4.454,4.454,0,0,0,1-.375Zm9.023.18a6.621,6.621,0,0,1-.953.168,9.738,9.738,0,0,1-1,.051,3.162,3.162,0,0,1-2.2-.668,2.655,2.655,0,0,1-.727-2.051V32.3h-2.2V31.156h2.2V29l1.359-.352v2.508H192.3V32.3h-3.523v3.984a1.643,1.643,0,0,0,.449,1.262,1.879,1.879,0,0,0,1.324.418,6.322,6.322,0,0,0,.82-.059,7.8,7.8,0,0,0,.93-.184Zm9.1-4.227q0,.289-.008.484t-.023.367h-5.508a2.441,2.441,0,0,0,.672,1.848,2.69,2.69,0,0,0,1.938.645q.344,0,.688-.027t.664-.074q.32-.047.613-.105t.543-.129v1.117a9.49,9.49,0,0,1-1.254.254,10.47,10.47,0,0,1-1.449.1,4.928,4.928,0,0,1-1.734-.273,2.968,2.968,0,0,1-1.191-.793,3.265,3.265,0,0,1-.687-1.273,6.026,6.026,0,0,1-.223-1.707,5.069,5.069,0,0,1,.238-1.566,3.932,3.932,0,0,1,.7-1.3,3.3,3.3,0,0,1,2.629-1.215,3.827,3.827,0,0,1,1.453.258,2.918,2.918,0,0,1,1.066.73,3.114,3.114,0,0,1,.656,1.148A4.814,4.814,0,0,1,201.406,34.664Zm-1.414-.2a2.964,2.964,0,0,0-.1-.957,2.014,2.014,0,0,0-.387-.746,1.8,1.8,0,0,0-.652-.488,2.189,2.189,0,0,0-.906-.176,1.893,1.893,0,0,0-.812.172,1.853,1.853,0,0,0-.633.484,2.5,2.5,0,0,0-.43.75,3.458,3.458,0,0,0-.2.961Zm3.188.773a5.342,5.342,0,0,1,.273-1.777,3.654,3.654,0,0,1,.777-1.312,3.29,3.29,0,0,1,1.211-.812,4.278,4.278,0,0,1,1.574-.277,5.764,5.764,0,0,1,.738.047,4.772,4.772,0,0,1,.715.148v-3.3h1.367V39h-1.219l-.047-1.484a4.11,4.11,0,0,1-1.234,1.227,2.744,2.744,0,0,1-1.437.4,2.33,2.33,0,0,1-2.035-1.074,3.806,3.806,0,0,1-.512-1.23A6.859,6.859,0,0,1,203.18,35.242Zm1.391-.086a4.232,4.232,0,0,0,.418,2.121,1.31,1.31,0,0,0,1.184.7,1.777,1.777,0,0,0,1.09-.461,6.594,6.594,0,0,0,1.207-1.367V32.508a3.305,3.305,0,0,0-.742-.238,4.057,4.057,0,0,0-.8-.082,2.165,2.165,0,0,0-1.73.719A3.39,3.39,0,0,0,204.57,35.156Zm21.3,7.125a9.916,9.916,0,0,1-3.6-7.375,9.447,9.447,0,0,1,.191-1.887,8.918,8.918,0,0,1,.617-1.887,10.318,10.318,0,0,1,1.125-1.891,13.728,13.728,0,0,1,1.7-1.875l.789.8a9.147,9.147,0,0,0-3.031,6.633,8.277,8.277,0,0,0,.766,3.484,10.767,10.767,0,0,0,2.266,3.156ZM236.828,33.9a9.056,9.056,0,0,1-.234,2.137,4.948,4.948,0,0,1-.711,1.656,3.343,3.343,0,0,1-1.184,1.07,3.464,3.464,0,0,1-1.66.379,3.533,3.533,0,0,1-1.492-.309,2.965,2.965,0,0,1-1.148-.949,4.687,4.687,0,0,1-.734-1.633,9.433,9.433,0,0,1-.258-2.352,8.963,8.963,0,0,1,.238-2.141,5.054,5.054,0,0,1,.711-1.66,3.3,3.3,0,0,1,1.184-1.07,3.47,3.47,0,0,1,1.656-.379,3.533,3.533,0,0,1,1.492.309,2.952,2.952,0,0,1,1.148.953,4.73,4.73,0,0,1,.734,1.637A9.433,9.433,0,0,1,236.828,33.9Zm-1.375.047q0-.266-.02-.527t-.043-.512l-4.32,3.211a4.018,4.018,0,0,0,.3.75,2.291,2.291,0,0,0,.434.59,1.865,1.865,0,0,0,.578.383,1.885,1.885,0,0,0,.738.137,1.852,1.852,0,0,0,.965-.258,2.153,2.153,0,0,0,.738-.766,4.173,4.173,0,0,0,.469-1.262A8.275,8.275,0,0,0,235.453,33.945Zm-4.672-.094q0,.242,0,.484t.027.469l4.32-3.2a3.655,3.655,0,0,0-.3-.727,2.3,2.3,0,0,0-.43-.566,1.914,1.914,0,0,0-2.254-.246,2.145,2.145,0,0,0-.738.77,4.226,4.226,0,0,0-.469,1.266A8.275,8.275,0,0,0,230.781,33.852Zm11.07,2.688a1.284,1.284,0,0,1,.918.383,1.347,1.347,0,0,1,.277.418,1.291,1.291,0,0,1,.1.512,1.244,1.244,0,0,1-.1.5,1.295,1.295,0,0,1-.691.688,1.311,1.311,0,0,1-1.012,0,1.305,1.305,0,0,1-.687-.687,1.244,1.244,0,0,1-.1-.5,1.291,1.291,0,0,1,.1-.512,1.347,1.347,0,0,1,.277-.418,1.28,1.28,0,0,1,.41-.281A1.263,1.263,0,0,1,241.852,36.539Zm12.57-2.641a9.056,9.056,0,0,1-.234,2.137,4.948,4.948,0,0,1-.711,1.656,3.343,3.343,0,0,1-1.184,1.07,3.464,3.464,0,0,1-1.66.379,3.533,3.533,0,0,1-1.492-.309,2.965,2.965,0,0,1-1.148-.949,4.687,4.687,0,0,1-.734-1.633A9.433,9.433,0,0,1,247,33.9a8.963,8.963,0,0,1,.238-2.141,5.054,5.054,0,0,1,.711-1.66,3.3,3.3,0,0,1,1.184-1.07,3.47,3.47,0,0,1,1.656-.379,3.533,3.533,0,0,1,1.492.309,2.952,2.952,0,0,1,1.148.953,4.73,4.73,0,0,1,.734,1.637A9.433,9.433,0,0,1,254.422,33.9Zm-1.375.047q0-.266-.02-.527t-.043-.512l-4.32,3.211a4.018,4.018,0,0,0,.3.75,2.291,2.291,0,0,0,.434.59,1.865,1.865,0,0,0,.578.383,1.885,1.885,0,0,0,.738.137,1.852,1.852,0,0,0,.965-.258,2.153,2.153,0,0,0,.738-.766,4.173,4.173,0,0,0,.469-1.262A8.275,8.275,0,0,0,253.047,33.945Zm-4.672-.094q0,.242,0,.484t.027.469l4.32-3.2a3.655,3.655,0,0,0-.3-.727,2.3,2.3,0,0,0-.43-.566,1.914,1.914,0,0,0-2.254-.246,2.145,2.145,0,0,0-.738.77,4.226,4.226,0,0,0-.469,1.266A8.275,8.275,0,0,0,248.375,33.852ZM262.789,35.9a2.964,2.964,0,0,1-.273,1.262,2.87,2.87,0,0,1-.82,1.031,4.059,4.059,0,0,1-1.375.7,6.6,6.6,0,0,1-1.93.254q-.609,0-1.094-.039t-.906-.1V37.781q.484.086,1.023.133t1.1.047a5.426,5.426,0,0,0,1.309-.137,2.47,2.47,0,0,0,.887-.395,1.518,1.518,0,0,0,.5-.625,2.1,2.1,0,0,0,.156-.828,1.4,1.4,0,0,0-.187-.734,1.56,1.56,0,0,0-.527-.523,2.607,2.607,0,0,0-.812-.316A4.755,4.755,0,0,0,258.8,34.3h-1.164V33.18h1.18a2.749,2.749,0,0,0,.84-.121,1.888,1.888,0,0,0,.648-.348,1.5,1.5,0,0,0,.414-.559,1.872,1.872,0,0,0,.145-.754,1.4,1.4,0,0,0-.5-1.2,2.425,2.425,0,0,0-1.469-.375,5.815,5.815,0,0,0-1.062.1,9.315,9.315,0,0,0-1.172.3V29.047q.266-.094.566-.168t.6-.125q.3-.051.6-.078t.57-.027a5.238,5.238,0,0,1,1.43.176,2.935,2.935,0,0,1,1.031.5,2.11,2.11,0,0,1,.625.8,2.543,2.543,0,0,1,.211,1.055,2.364,2.364,0,0,1-.449,1.469,3.1,3.1,0,0,1-1.23.945,2.782,2.782,0,0,1,.785.25,2.739,2.739,0,0,1,.7.48,2.341,2.341,0,0,1,.5.691A2.012,2.012,0,0,1,262.789,35.9Zm17.375.961a1.867,1.867,0,0,1-.141.742,1.947,1.947,0,0,1-.383.582,2.382,2.382,0,0,1-.562.434,3.739,3.739,0,0,1-.684.3,4.5,4.5,0,0,1-.746.172,5.3,5.3,0,0,1-.75.055,14.057,14.057,0,0,1-1.465-.07,9.882,9.882,0,0,1-1.309-.227v-1.25a10.89,10.89,0,0,0,1.367.3,9.135,9.135,0,0,0,1.352.1,3.033,3.033,0,0,0,1.445-.266.831.831,0,0,0,.469-.758.928.928,0,0,0-.074-.379.861.861,0,0,0-.27-.32,2.576,2.576,0,0,0-.605-.316q-.41-.164-1.121-.375a7.958,7.958,0,0,1-.98-.355,3.288,3.288,0,0,1-.777-.473,2.03,2.03,0,0,1-.516-.641,1.884,1.884,0,0,1-.187-.867,1.993,1.993,0,0,1,.152-.719,1.953,1.953,0,0,1,.52-.727,2.891,2.891,0,0,1,.992-.559,4.706,4.706,0,0,1,1.563-.223q.461,0,1.023.051a10.569,10.569,0,0,1,1.172.176v1.211a11.2,11.2,0,0,0-1.215-.23,7.915,7.915,0,0,0-1-.074,3.975,3.975,0,0,0-.855.078,1.775,1.775,0,0,0-.562.215.839.839,0,0,0-.309.32.855.855,0,0,0-.094.395.877.877,0,0,0,.082.383.916.916,0,0,0,.3.332,3,3,0,0,0,.621.32q.4.16,1.039.348a8.312,8.312,0,0,1,1.172.426,3.024,3.024,0,0,1,.773.5,1.6,1.6,0,0,1,.426.617A2.214,2.214,0,0,1,280.164,36.859Zm9.211-2.2q0,.289-.008.484t-.023.367h-5.508a2.441,2.441,0,0,0,.672,1.848,2.69,2.69,0,0,0,1.938.645q.344,0,.688-.027t.664-.074q.32-.047.613-.105t.543-.129v1.117a9.489,9.489,0,0,1-1.254.254,10.47,10.47,0,0,1-1.449.1,4.928,4.928,0,0,1-1.734-.273,2.969,2.969,0,0,1-1.191-.793,3.265,3.265,0,0,1-.687-1.273,6.026,6.026,0,0,1-.223-1.707,5.069,5.069,0,0,1,.238-1.566,3.932,3.932,0,0,1,.7-1.3,3.3,3.3,0,0,1,2.629-1.215,3.827,3.827,0,0,1,1.453.258A2.918,2.918,0,0,1,288.5,32a3.114,3.114,0,0,1,.656,1.148A4.814,4.814,0,0,1,289.375,34.664Zm-1.414-.2a2.963,2.963,0,0,0-.1-.957,2.015,2.015,0,0,0-.387-.746,1.8,1.8,0,0,0-.652-.488,2.189,2.189,0,0,0-.906-.176,1.893,1.893,0,0,0-.812.172,1.853,1.853,0,0,0-.633.484,2.5,2.5,0,0,0-.43.75,3.458,3.458,0,0,0-.2.961Zm9.68,4.242a5.88,5.88,0,0,1-1.09.3,6.68,6.68,0,0,1-1.152.1,3.865,3.865,0,0,1-2.863-1.008,4,4,0,0,1-1-2.945,4.7,4.7,0,0,1,.289-1.687,3.758,3.758,0,0,1,.813-1.3,3.591,3.591,0,0,1,1.25-.832,4.245,4.245,0,0,1,1.6-.293,7.149,7.149,0,0,1,1.141.086,4.724,4.724,0,0,1,1.016.281v1.3a4.31,4.31,0,0,0-1.035-.387,4.854,4.854,0,0,0-1.09-.121,2.482,2.482,0,0,0-.988.2,2.41,2.41,0,0,0-.816.574,2.72,2.72,0,0,0-.555.914,3.438,3.438,0,0,0-.2,1.219,2.933,2.933,0,0,0,.691,2.129,2.559,2.559,0,0,0,1.918.707,4.576,4.576,0,0,0,1.074-.125,4.454,4.454,0,0,0,1-.375Zm4.3-11.344a9.958,9.958,0,0,1,3.6,7.422,9.388,9.388,0,0,1-.172,1.75,8.7,8.7,0,0,1-.586,1.855,10.623,10.623,0,0,1-1.113,1.926,13.114,13.114,0,0,1-1.762,1.961l-.789-.8a10.766,10.766,0,0,0,2.273-3.148,8.175,8.175,0,0,0,.75-3.437,9.161,9.161,0,0,0-3.023-6.687ZM6.844,87V81.367a5.377,5.377,0,0,0-.027-.6,1.371,1.371,0,0,0-.086-.371.4.4,0,0,0-.148-.191.421.421,0,0,0-.223-.055.491.491,0,0,0-.289.094,1.313,1.313,0,0,0-.285.3,4.818,4.818,0,0,0-.336.559q-.184.348-.434.855V87H3.773V81.516q0-.43-.027-.7a1.623,1.623,0,0,0-.086-.414.389.389,0,0,0-.152-.2.442.442,0,0,0-.227-.055.493.493,0,0,0-.266.078,1.13,1.13,0,0,0-.277.281,4.4,4.4,0,0,0-.34.555q-.187.352-.445.9V87H.7V79.156H1.742L1.8,80.648a7.135,7.135,0,0,1,.395-.758,2.44,2.44,0,0,1,.395-.5,1.346,1.346,0,0,1,.434-.281,1.4,1.4,0,0,1,.512-.09,1.153,1.153,0,0,1,.961.414,2.051,2.051,0,0,1,.328,1.281q.188-.406.367-.723a2.64,2.64,0,0,1,.387-.531,1.484,1.484,0,0,1,.457-.328,1.388,1.388,0,0,1,.578-.113q1.477,0,1.477,2.273V87Zm10.18-7.844-2.672,7.016a13.757,13.757,0,0,1-.855,1.844,5.467,5.467,0,0,1-.965,1.27,3.4,3.4,0,0,1-1.148.73,3.958,3.958,0,0,1-1.4.234q-.2,0-.367-.008t-.359-.023V88.984q.172.023.375.043t.43.02a2.174,2.174,0,0,0,.7-.109,1.864,1.864,0,0,0,.613-.355,3.171,3.171,0,0,0,.555-.637A6.269,6.269,0,0,0,12.445,87L9.313,79.156h1.547l1.984,5.188.4,1.219.453-1.25,1.836-5.156Zm8.031,5.7a1.867,1.867,0,0,1-.141.742,1.947,1.947,0,0,1-.383.582,2.381,2.381,0,0,1-.562.434,3.74,3.74,0,0,1-.684.3,4.5,4.5,0,0,1-.746.172,5.3,5.3,0,0,1-.75.055,14.057,14.057,0,0,1-1.465-.07,9.882,9.882,0,0,1-1.309-.227v-1.25a10.889,10.889,0,0,0,1.367.3,9.134,9.134,0,0,0,1.352.1,3.032,3.032,0,0,0,1.445-.266.831.831,0,0,0,.469-.758.928.928,0,0,0-.074-.379.861.861,0,0,0-.27-.32,2.576,2.576,0,0,0-.605-.316q-.41-.164-1.121-.375a7.957,7.957,0,0,1-.98-.355,3.288,3.288,0,0,1-.777-.473,2.03,2.03,0,0,1-.516-.641,1.884,1.884,0,0,1-.187-.867,1.993,1.993,0,0,1,.152-.719,1.953,1.953,0,0,1,.52-.727,2.891,2.891,0,0,1,.992-.559,4.706,4.706,0,0,1,1.563-.223q.461,0,1.023.051a10.568,10.568,0,0,1,1.172.176v1.211a11.2,11.2,0,0,0-1.215-.23,7.916,7.916,0,0,0-1-.074,3.975,3.975,0,0,0-.855.078,1.775,1.775,0,0,0-.562.215.839.839,0,0,0-.309.32.855.855,0,0,0-.094.395.877.877,0,0,0,.082.383.916.916,0,0,0,.3.332,3,3,0,0,0,.621.32q.4.16,1.039.348a8.311,8.311,0,0,1,1.172.426,3.025,3.025,0,0,1,.773.5,1.6,1.6,0,0,1,.426.617A2.214,2.214,0,0,1,25.055,84.859Zm2.188-1.617a5.653,5.653,0,0,1,.223-1.6,3.789,3.789,0,0,1,.688-1.332,3.27,3.27,0,0,1,1.191-.91,4.1,4.1,0,0,1,1.734-.336,4.987,4.987,0,0,1,.789.063,6.275,6.275,0,0,1,.828.2l1.2-.3V90.2H32.531V87.242l.07-1.68a3.194,3.194,0,0,1-2.641,1.578,2.429,2.429,0,0,1-1.2-.281,2.4,2.4,0,0,1-.848-.8,3.793,3.793,0,0,1-.508-1.234A6.973,6.973,0,0,1,27.242,83.242Zm1.391-.086a6.466,6.466,0,0,0,.1,1.18,2.977,2.977,0,0,0,.3.887,1.518,1.518,0,0,0,.5.559,1.269,1.269,0,0,0,.707.2,1.777,1.777,0,0,0,1.09-.461,6.594,6.594,0,0,0,1.207-1.367V80.508a3.57,3.57,0,0,0-.707-.242,3.624,3.624,0,0,0-.84-.094,2.1,2.1,0,0,0-1.75.758A3.524,3.524,0,0,0,28.633,83.156Zm10.477-6.078h-2.32V75.961h3.7v9.906H42.82V87H36.531V85.867h2.578Zm6.508,2.148.844-.867,5.25,4.383-5.25,4.383-.844-.859,4.258-3.508Z" transform="translate(-0.445 -3.961)" fill="#12263f"/>
</svg>
